<svg width="20" height="21" viewBox="0 0 20 21" fill="none" xmlns="http://www.w3.org/2000/svg">
<path d="M20 10.5C20 10.5391 19.9609 10.5781 19.9609 10.6172C19.9609 12.0625 18.6719 13 17.2266 13H13.4375C12.3828 13 11.5625 13.8594 11.5625 14.875C11.5625 15.0312 11.5625 15.1484 11.6016 15.2656C11.6797 15.6953 11.8359 16.0469 11.9922 16.4375C12.2266 16.9844 12.5 17.5312 12.5 18.0781C12.5 19.3281 11.6406 20.4609 10.3906 20.5C10.2734 20.5 10.1172 20.5 10 20.5C4.45312 20.5 0 16.0469 0 10.5C0 4.99219 4.45312 0.5 10 0.5C15.5078 0.5 20 4.99219 20 10.5ZM3.75 10.5C3.04688 10.5 2.5 11.0859 2.5 11.75C2.5 12.4531 3.04688 13 3.75 13C4.41406 13 5 12.4531 5 11.75C5 11.0859 4.41406 10.5 3.75 10.5ZM5 8C5.66406 8 6.25 7.45312 6.25 6.75C6.25 6.08594 5.66406 5.5 5 5.5C4.29688 5.5 3.75 6.08594 3.75 6.75C3.75 7.45312 4.29688 8 5 8ZM10 3C9.29688 3 8.75 3.58594 8.75 4.25C8.75 4.95312 9.29688 5.5 10 5.5C10.6641 5.5 11.25 4.95312 11.25 4.25C11.25 3.58594 10.6641 3 10 3ZM15 8C15.6641 8 16.25 7.45312 16.25 6.75C16.25 6.08594 15.6641 5.5 15 5.5C14.2969 5.5 13.75 6.08594 13.75 6.75C13.75 7.45312 14.2969 8 15 8Z" fill="white"/>
</svg>
