<svg width="16" height="21" viewBox="0 0 16 21" fill="none" xmlns="http://www.w3.org/2000/svg">
<path d="M15.5 5.5H10.5V0.5L15.5 5.5ZM10.5 6.75H15.5V18.625C15.5 19.6797 14.6406 20.5 13.625 20.5H2.375C1.32031 20.5 0.5 19.6797 0.5 18.625V2.375C0.5 1.35938 1.32031 0.5 2.375 0.5H9.25V5.5C9.25 6.20312 9.79688 6.75 10.5 6.75ZM10.4609 12.0234L8.9375 13.5859V9.5625C8.9375 9.05469 8.50781 8.625 8 8.625C7.45312 8.625 7.0625 9.05469 7.0625 9.5625V13.5859L5.5 12.0234C5.34375 11.8672 5.10938 11.75 4.875 11.75C4.60156 11.75 4.36719 11.8672 4.21094 12.0234C3.82031 12.4141 3.82031 13 4.21094 13.3516L7.33594 16.4766C7.6875 16.8672 8.27344 16.8672 8.625 16.4766L11.75 13.3516C12.1406 13 12.1406 12.4141 11.75 12.0234C11.3984 11.6719 10.8125 11.6719 10.4609 12.0234Z" fill="white"/>
</svg>
