<svg width="28" height="28" viewBox="0 0 28 28" fill="none" xmlns="http://www.w3.org/2000/svg">
<path d="M14 2.33334C12.468 2.33334 10.9509 2.63511 9.5354 3.22142C8.11993 3.80772 6.83381 4.66708 5.75046 5.75043C3.56254 7.93836 2.33337 10.9058 2.33337 14C2.33337 19.1567 5.68171 23.5317 10.3134 25.0833C10.8967 25.1767 11.0834 24.815 11.0834 24.5C11.0834 24.2317 11.0834 23.4967 11.0834 22.5283C7.85171 23.2283 7.16337 20.965 7.16337 20.965C6.62671 19.6117 5.86837 19.25 5.86837 19.25C4.80671 18.5267 5.95004 18.55 5.95004 18.55C7.11671 18.6317 7.73504 19.7517 7.73504 19.7517C8.75004 21.525 10.465 21 11.13 20.72C11.235 19.9617 11.5384 19.4483 11.865 19.1567C9.27504 18.865 6.55671 17.8617 6.55671 13.4167C6.55671 12.1217 7.00004 11.0833 7.75837 10.255C7.64171 9.96334 7.23337 8.75001 7.87504 7.17501C7.87504 7.17501 8.85504 6.86001 11.0834 8.36501C12.005 8.10834 13.0084 7.98001 14 7.98001C14.9917 7.98001 15.995 8.10834 16.9167 8.36501C19.145 6.86001 20.125 7.17501 20.125 7.17501C20.7667 8.75001 20.3584 9.96334 20.2417 10.255C21 11.0833 21.4434 12.1217 21.4434 13.4167C21.4434 17.8733 18.7134 18.8533 16.1117 19.145C16.5317 19.5067 16.9167 20.2183 16.9167 21.3033C16.9167 22.8667 16.9167 24.1267 16.9167 24.5C16.9167 24.815 17.1034 25.1883 17.6984 25.0833C22.33 23.52 25.6667 19.1567 25.6667 14C25.6667 12.4679 25.3649 10.9508 24.7786 9.53537C24.1923 8.1199 23.333 6.83378 22.2496 5.75043C21.1663 4.66708 19.8801 3.80772 18.4647 3.22142C17.0492 2.63511 15.5321 2.33334 14 2.33334V2.33334Z" fill="white"/>
</svg>
