<svg width="40" height="40" viewBox="0 0 40 40" fill="none" xmlns="http://www.w3.org/2000/svg">
<path d="M13 3.33333H27C32.3333 3.33333 36.6667 7.66667 36.6667 13V27C36.6667 29.5638 35.6482 32.0225 33.8354 33.8354C32.0225 35.6482 29.5638 36.6667 27 36.6667H13C7.66667 36.6667 3.33333 32.3333 3.33333 27V13C3.33333 10.4362 4.35178 7.97749 6.16463 6.16463C7.97749 4.35178 10.4362 3.33333 13 3.33333V3.33333ZM12.6667 6.66667C11.0754 6.66667 9.54924 7.29881 8.42403 8.42403C7.29881 9.54924 6.66667 11.0754 6.66667 12.6667V27.3333C6.66667 30.65 9.35 33.3333 12.6667 33.3333H27.3333C28.9246 33.3333 30.4508 32.7012 31.576 31.576C32.7012 30.4508 33.3333 28.9246 33.3333 27.3333V12.6667C33.3333 9.35 30.65 6.66667 27.3333 6.66667H12.6667ZM28.75 9.16667C29.3025 9.16667 29.8324 9.38616 30.2231 9.77686C30.6138 10.1676 30.8333 10.6975 30.8333 11.25C30.8333 11.8025 30.6138 12.3324 30.2231 12.7231C29.8324 13.1138 29.3025 13.3333 28.75 13.3333C28.1975 13.3333 27.6676 13.1138 27.2769 12.7231C26.8862 12.3324 26.6667 11.8025 26.6667 11.25C26.6667 10.6975 26.8862 10.1676 27.2769 9.77686C27.6676 9.38616 28.1975 9.16667 28.75 9.16667ZM20 11.6667C22.2101 11.6667 24.3298 12.5446 25.8926 14.1074C27.4554 15.6702 28.3333 17.7899 28.3333 20C28.3333 22.2101 27.4554 24.3298 25.8926 25.8926C24.3298 27.4554 22.2101 28.3333 20 28.3333C17.7899 28.3333 15.6702 27.4554 14.1074 25.8926C12.5446 24.3298 11.6667 22.2101 11.6667 20C11.6667 17.7899 12.5446 15.6702 14.1074 14.1074C15.6702 12.5446 17.7899 11.6667 20 11.6667V11.6667ZM20 15C18.6739 15 17.4021 15.5268 16.4645 16.4645C15.5268 17.4021 15 18.6739 15 20C15 21.3261 15.5268 22.5979 16.4645 23.5355C17.4021 24.4732 18.6739 25 20 25C21.3261 25 22.5979 24.4732 23.5355 23.5355C24.4732 22.5979 25 21.3261 25 20C25 18.6739 24.4732 17.4021 23.5355 16.4645C22.5979 15.5268 21.3261 15 20 15Z" fill="#C5FFAD"/>
</svg>
