<svg width="28" height="28" viewBox="0 0 28 28" fill="none" xmlns="http://www.w3.org/2000/svg">
<path d="M9.10004 2.33334H18.9C22.6334 2.33334 25.6667 5.36668 25.6667 9.10001V18.9C25.6667 20.6946 24.9538 22.4158 23.6848 23.6848C22.4158 24.9538 20.6947 25.6667 18.9 25.6667H9.10004C5.36671 25.6667 2.33337 22.6333 2.33337 18.9V9.10001C2.33337 7.30538 3.04629 5.58425 4.31529 4.31525C5.58428 3.04626 7.30541 2.33334 9.10004 2.33334V2.33334ZM8.86671 4.66668C7.7528 4.66668 6.68451 5.10918 5.89686 5.89683C5.10921 6.68448 4.66671 7.75277 4.66671 8.86668V19.1333C4.66671 21.455 6.54504 23.3333 8.86671 23.3333H19.1334C20.2473 23.3333 21.3156 22.8908 22.1032 22.1032C22.8909 21.3155 23.3334 20.2473 23.3334 19.1333V8.86668C23.3334 6.54501 21.455 4.66668 19.1334 4.66668H8.86671ZM20.125 6.41668C20.5118 6.41668 20.8828 6.57032 21.1562 6.84381C21.4297 7.1173 21.5834 7.48824 21.5834 7.87501C21.5834 8.26178 21.4297 8.63272 21.1562 8.90621C20.8828 9.1797 20.5118 9.33334 20.125 9.33334C19.7383 9.33334 19.3673 9.1797 19.0938 8.90621C18.8204 8.63272 18.6667 8.26178 18.6667 7.87501C18.6667 7.48824 18.8204 7.1173 19.0938 6.84381C19.3673 6.57032 19.7383 6.41668 20.125 6.41668ZM14 8.16668C15.5471 8.16668 17.0309 8.78126 18.1248 9.87522C19.2188 10.9692 19.8334 12.4529 19.8334 14C19.8334 15.5471 19.2188 17.0308 18.1248 18.1248C17.0309 19.2188 15.5471 19.8333 14 19.8333C12.4529 19.8333 10.9692 19.2188 9.87525 18.1248C8.78129 17.0308 8.16671 15.5471 8.16671 14C8.16671 12.4529 8.78129 10.9692 9.87525 9.87522C10.9692 8.78126 12.4529 8.16668 14 8.16668V8.16668ZM14 10.5C13.0718 10.5 12.1815 10.8688 11.5252 11.5251C10.8688 12.1815 10.5 13.0718 10.5 14C10.5 14.9283 10.8688 15.8185 11.5252 16.4749C12.1815 17.1313 13.0718 17.5 14 17.5C14.9283 17.5 15.8185 17.1313 16.4749 16.4749C17.1313 15.8185 17.5 14.9283 17.5 14C17.5 13.0718 17.1313 12.1815 16.4749 11.5251C15.8185 10.8688 14.9283 10.5 14 10.5Z" fill="white"/>
</svg>
