<svg width="20" height="21" viewBox="0 0 20 21" fill="none" xmlns="http://www.w3.org/2000/svg">
<path d="M10 16.8281C9.33594 16.8281 8.71094 16.6328 8.16406 16.2031L0 10.3047V18.625C0 19.6797 0.820312 20.5 1.875 20.5H18.125C19.1406 20.5 20 19.6797 20 18.6641V10.3047L11.7969 16.2031C11.25 16.5938 10.625 16.8281 10 16.8281ZM19.2578 6.86719C18.9062 6.59375 18.5938 6.35938 18.125 6.00781V4.25C18.125 3.23438 17.2656 2.375 16.25 2.375H13.2031C13.0859 2.29688 12.9688 2.21875 12.8516 2.14062C12.1875 1.67188 10.8984 0.5 10 0.539062C9.0625 0.5 7.77344 1.67188 7.10938 2.14062C6.99219 2.21875 6.875 2.29688 6.75781 2.375H3.75C2.69531 2.375 1.875 3.23438 1.875 4.25V6.00781C1.36719 6.35938 1.05469 6.59375 0.703125 6.86719C0.234375 7.21875 0 7.76562 0 8.35156V8.78125L3.75 11.4766V4.25H16.25V11.4766L20 8.78125V8.35156C20 7.76562 19.7266 7.21875 19.2578 6.86719ZM6.875 10.5H13.125C13.4375 10.5 13.75 10.1875 13.75 9.875C13.75 9.5625 13.4375 9.25 13.125 9.25H6.875C6.52344 9.25 6.25 9.5625 6.25 9.875C6.25 10.2266 6.52344 10.5 6.875 10.5ZM6.875 8H13.125C13.4375 8 13.75 7.6875 13.75 7.375C13.75 7.02344 13.4375 6.75 13.125 6.75H6.875C6.52344 6.75 6.25 7.0625 6.25 7.375C6.25 7.72656 6.52344 8 6.875 8Z" fill="white"/>
</svg>
