<svg width="22" height="21" viewBox="0 0 22 21" fill="none" xmlns="http://www.w3.org/2000/svg">
<path d="M20.2188 2.17969C21.1953 3.15625 21.1953 4.75781 20.2188 5.73438L18.0312 7.92188L13.5781 3.46875L15.7656 1.28125C16.7422 0.304688 18.3438 0.304688 19.3203 1.28125L20.2188 2.17969ZM2.71875 14.3281L12.6797 4.36719L17.1328 8.82031L7.17188 18.7812C6.9375 19.0156 6.58594 19.2109 6.23438 19.3281L2.17188 20.5C1.85938 20.5781 1.50781 20.5 1.27344 20.2266C1 19.9922 0.921875 19.6406 1 19.3281L2.17188 15.2656C2.28906 14.9141 2.48438 14.5625 2.71875 14.3281ZM10.7266 4.5625L5.02344 10.2656L1.625 6.82812C0.882812 6.125 0.882812 4.91406 1.625 4.21094L4.67188 1.125C5.375 0.421875 6.58594 0.421875 7.28906 1.125L8.07031 1.90625C8.07031 1.94531 8.07031 1.94531 8.03125 1.94531L5.53125 4.44531C5.29688 4.67969 5.29688 5.10938 5.53125 5.34375C5.76562 5.57812 6.19531 5.57812 6.42969 5.34375L8.92969 2.84375C8.92969 2.80469 8.92969 2.80469 8.96875 2.80469L10.7266 4.5625ZM18.6953 12.5312C18.6953 12.5312 18.6953 12.5703 18.6562 12.5703L16.1562 15.0703C15.9219 15.3047 15.9219 15.7344 16.1562 15.9688C16.3906 16.2031 16.8203 16.2031 17.0547 15.9688L19.5547 13.4688C19.5547 13.4297 19.5547 13.4297 19.5938 13.4297L20.375 14.2109C21.0781 14.9141 21.0781 16.125 20.375 16.8281L17.2891 19.875C16.5859 20.6172 15.375 20.6172 14.6719 19.875L11.2344 16.4766L16.9375 10.7734L18.6953 12.5312Z" fill="white"/>
</svg>
