<svg width="24" height="21" viewBox="0 0 24 21" fill="none" xmlns="http://www.w3.org/2000/svg">
<path d="M11.4922 10.3047C11.7656 10.5781 12.1953 10.5781 12.4688 10.3047L16.6875 5.85156C17.9375 4.5625 17.8594 2.41406 16.4922 1.20312C15.2812 0.148438 13.4844 0.34375 12.3906 1.51562L11.9609 1.94531L11.5312 1.51562C10.4375 0.34375 8.64062 0.148438 7.42969 1.20312C6.0625 2.41406 5.98438 4.5625 7.23438 5.85156L11.4922 10.3047ZM22.9375 13.6641C22.4297 12.9609 21.4531 12.8047 20.75 13.3125L16.0625 16.7891H11.3359C11.0234 16.7891 10.75 16.4766 10.75 16.1641C10.75 15.8516 11.0625 15.5781 11.3359 15.5781H14.4219C15.0078 15.5781 15.5938 15.1484 15.7109 14.5625C15.8281 13.8203 15.2422 13.0781 14.4609 13.0781H8.21094C7.19531 13.0781 6.10156 13.4688 5.28125 14.1328L3.48438 15.5781H1.33594C0.984375 15.5781 0.75 15.8906 0.75 16.2031V19.875C0.75 20.2266 1.02344 20.5 1.33594 20.5H14.8516C15.7109 20.5 16.5703 20.2266 17.2344 19.7188L22.5469 15.8516C23.2891 15.3438 23.4453 14.3672 22.9375 13.6641Z" fill="white"/>
</svg>
