<svg width="40" height="40" viewBox="0 0 40 40" fill="none" xmlns="http://www.w3.org/2000/svg">
<path d="M37.4333 10C36.15 10.5833 34.7667 10.9667 33.3333 11.15C34.8 10.2667 35.9333 8.86667 36.4667 7.18333C35.0833 8.01667 33.55 8.6 31.9333 8.93333C30.6167 7.5 28.7667 6.66667 26.6667 6.66667C22.75 6.66667 19.55 9.86667 19.55 13.8167C19.55 14.3833 19.6167 14.9333 19.7333 15.45C13.8 15.15 8.51667 12.3 5 7.98333C4.38333 9.03333 4.03333 10.2667 4.03333 11.5667C4.03333 14.05 5.28333 16.25 7.21667 17.5C6.03333 17.5 4.93333 17.1667 3.96667 16.6667C3.96667 16.6667 3.96667 16.6667 3.96667 16.7167C3.96667 20.1833 6.43333 23.0833 9.7 23.7333C9.1 23.9 8.46667 23.9833 7.81667 23.9833C7.36667 23.9833 6.91667 23.9333 6.48333 23.85C7.38333 26.6667 10 28.7667 13.15 28.8167C10.7167 30.75 7.63333 31.8833 4.26667 31.8833C3.7 31.8833 3.13333 31.85 2.56667 31.7833C5.73333 33.8167 9.5 35 13.5333 35C26.6667 35 33.8833 24.1 33.8833 14.65C33.8833 14.3333 33.8833 14.0333 33.8667 13.7167C35.2667 12.7167 36.4667 11.45 37.4333 10Z" fill="#C5FFAD"/>
</svg>
