<svg width="28" height="28" viewBox="0 0 28 28" fill="none" xmlns="http://www.w3.org/2000/svg">
<path d="M26.2034 6.99999C25.305 7.40832 24.3367 7.67666 23.3334 7.80499C24.36 7.18666 25.1534 6.20666 25.5267 5.02832C24.5584 5.61166 23.485 6.01999 22.3534 6.25332C21.4317 5.24999 20.1367 4.66666 18.6667 4.66666C15.925 4.66666 13.685 6.90666 13.685 9.67166C13.685 10.0683 13.7317 10.4533 13.8134 10.815C9.66003 10.605 5.96169 8.60999 3.50003 5.58832C3.06836 6.32332 2.82336 7.18666 2.82336 8.09666C2.82336 9.83499 3.69836 11.375 5.05169 12.25C4.22336 12.25 3.45336 12.0167 2.77669 11.6667C2.77669 11.6667 2.77669 11.6667 2.77669 11.7017C2.77669 14.1283 4.50336 16.1583 6.79003 16.6133C6.37003 16.73 5.92669 16.7883 5.47169 16.7883C5.15669 16.7883 4.84169 16.7533 4.53836 16.695C5.16836 18.6667 7.00003 20.1367 9.20503 20.1717C7.50169 21.525 5.34336 22.3183 2.98669 22.3183C2.59003 22.3183 2.19336 22.295 1.79669 22.2483C4.01336 23.6717 6.65003 24.5 9.47336 24.5C18.6667 24.5 23.7184 16.87 23.7184 10.255C23.7184 10.0333 23.7184 9.82332 23.7067 9.60166C24.6867 8.90166 25.5267 8.01499 26.2034 6.99999Z" fill="white"/>
</svg>
